<svg width="24" height="24" viewBox="0 0 24 24" fill="none" xmlns="http://www.w3.org/2000/svg">
<g clip-path="url(#clip0_204_11212)">
<circle cx="12" cy="12" r="12" fill="#2A5ADA"/>
<path d="M0 12C-1.37766e-07 13.5759 0.310389 15.1363 0.913445 16.5922C1.5165 18.0481 2.40042 19.371 3.51472 20.4853C4.62902 21.5996 5.95189 22.4835 7.4078 23.0866C8.86371 23.6896 10.4241 24 12 24C13.5759 24 15.1363 23.6896 16.5922 23.0866C18.0481 22.4835 19.371 21.5996 20.4853 20.4853C21.5996 19.371 22.4835 18.0481 23.0866 16.5922C23.6896 15.1363 24 13.5759 24 12H12L0 12Z" fill="#DAC82A"/>
</g>
<defs>
<clipPath id="clip0_204_11212">
<rect width="24" height="24" fill="white"/>
</clipPath>
</defs>
</svg>
